# Blender v2.79 (sub 0) OBJ File: 'FuckingHateBlender.blend'
# www.blender.org
mtllib Room.mtl
o Cube
v -2.323211 2.397592 -1.000000
v -2.323211 2.397592 1.000000
v 1.000000 2.397592 1.000000
v 1.000000 2.397592 -1.000000
v -2.323210 1.186598 1.000001
v 1.000000 1.186598 -1.000000
v -2.219433 2.220866 0.903053
v 1.000000 1.186598 1.000000
v 0.900496 2.220866 0.903052
v -2.219434 2.220866 -0.920151
v 0.900496 2.220866 -0.920151
v -2.323211 1.186598 -0.999999
v -2.219433 1.186598 0.903053
v 0.900496 1.186598 0.903052
v -2.219434 1.186598 -0.920151
v 0.900496 1.186598 -0.920151
v -2.323210 1.186598 0.600583
v -2.219433 2.220866 0.600583
v -2.219433 1.186598 0.600583
v -2.323211 1.186598 0.139055
v -2.219433 2.220866 0.139055
v -2.219433 1.186598 0.139055
v -2.323211 1.979657 0.139055
v -2.323210 1.979657 0.600583
v -2.219433 1.979657 0.139055
v -2.219433 1.979657 0.600583
vt 0.024868 0.597277
vt 0.984447 0.585512
vt 0.988106 0.883909
vt 0.028526 0.895674
vt 0.063512 0.920559
vt 0.056465 0.602354
vt 0.987353 0.581737
vt 0.994400 0.899942
vt 0.984783 0.918097
vt 0.038345 0.938125
vt 0.031499 0.614605
vt 0.977937 0.594576
vt 0.504627 0.605208
vt 0.506017 0.739417
vt 0.492000 0.739563
vt 0.490504 0.595235
vt 0.939391 0.590585
vt 0.942016 0.844001
vt 0.493130 0.848651
vt 0.492605 0.798042
vt 0.506623 0.797897
vt 0.507020 0.836222
vt 0.928448 0.831856
vt 0.926055 0.600842
vt 0.219587 0.589653
vt 0.845950 0.580990
vt 0.850870 0.936755
vt 0.224508 0.945418
vt 0.967899 0.997081
vt 0.051460 0.991335
vt 0.051982 0.907992
vt 0.052780 0.780823
vt 0.054610 0.488969
vt 0.971049 0.494716
vt 0.466211 0.020368
vt 0.504538 0.020368
vt 0.504538 0.441818
vt 0.273511 0.441818
vt 0.273511 0.020368
vt 0.407728 0.020368
vt 0.407728 0.006350
vt 0.466211 0.006350
vt 0.942411 0.745719
vt 0.942428 0.990209
vt 0.051203 0.990270
vt 0.051187 0.745780
vt 0.014673 0.667198
vt 0.974480 0.671733
vt 0.973070 0.970202
vt 0.013262 0.965666
vt 0.063143 0.484969
vt 0.934294 0.481944
vt 0.935904 0.945516
vt 0.064753 0.948541
vt 0.919969 0.967978
vt 0.066672 0.979192
vt 0.060342 0.497468
vt 0.913638 0.486255
vt 0.709241 0.543129
vt 0.733478 0.955060
vt 0.356164 0.977261
vt 0.331927 0.565330
vt 0.437959 0.588623
vt 0.451109 0.588623
vt 0.451109 0.650967
vt 0.437959 0.650967
vt 0.489436 0.511255
vt 0.502586 0.511255
vt 0.502586 0.618384
vt 0.489436 0.618384
vt 0.476286 0.511255
vt 0.489436 0.511255
vt 0.489436 0.618384
vt 0.476286 0.618384
vt 0.062528 0.974604
vt 0.072340 0.533834
vt 0.971406 0.553850
vt 0.961593 0.994621
vt 0.726819 0.521053
vt 0.885816 0.521883
vt 0.883457 0.974084
vt 0.087309 0.969931
vt 0.089668 0.517730
vt 0.543096 0.520095
vt 0.541551 0.816233
vt 0.725274 0.817192
vn 0.0000 -0.0000 1.0000
vn -0.0000 -0.0000 -1.0000
vn -0.0000 -1.0000 0.0000
vn 1.0000 0.0000 -0.0000
vn 0.0000 1.0000 -0.0000
vn -1.0000 0.0000 0.0000
usemtl Material
s off
f 11/1/1 10/2/1 15/3/1 16/4/1
f 2/5/1 5/6/1 8/7/1 3/8/1
f 1/9/2 4/10/2 6/11/2 12/12/2
f 15/13/3 22/14/3 20/15/3 12/16/3 6/17/3 8/18/3 5/19/3 17/20/3 19/21/3 13/22/3 14/23/3 16/24/3
f 4/25/4 3/26/4 8/27/4 6/28/4
f 9/29/3 7/30/3 18/31/3 21/32/3 10/33/3 11/34/3
f 19/35/5 13/36/5 14/37/5 16/38/5 15/39/5 22/40/5 20/41/5 17/42/5
f 18/43/4 7/44/4 13/45/4 19/46/4
f 7/47/2 9/48/2 14/49/2 13/50/2
f 9/51/6 11/52/6 16/53/6 14/54/6
f 2/55/5 3/56/5 4/57/5 1/58/5
f 10/59/4 21/60/4 22/61/4 15/62/4
f 23/63/3 25/64/3 26/65/3 24/66/3
f 20/67/1 22/68/1 25/69/1 23/70/1
f 19/71/2 17/72/2 24/73/2 26/74/2
f 18/75/4 26/76/4 25/77/4 21/78/4
f 17/79/6 5/80/6 2/81/6 1/82/6 12/83/6 20/84/6 23/85/6 24/86/6
