# Blender v2.79 (sub 0) OBJ File: ''
# www.blender.org
mtllib ClosedPipe.mtl
o Cylinder
v 0.000000 -0.809703 -0.900000
v 0.175581 -0.809703 -0.882707
v 0.344415 -0.809703 -0.831492
v 0.500013 -0.809703 -0.748323
v 0.636396 -0.809703 -0.636396
v 0.748323 -0.809703 -0.500013
v 0.831492 -0.809703 -0.344415
v 0.882707 -0.809703 -0.175581
v 0.900000 -0.809703 -0.000000
v 0.882707 -0.809703 0.175581
v 0.831492 -0.809703 0.344415
v 0.748323 -0.809703 0.500013
v 0.636396 -0.809703 0.636396
v 0.500013 -0.809703 0.748323
v 0.344415 -0.809703 0.831492
v 0.175581 -0.809703 0.882707
v -0.000000 -0.809703 0.900000
v -0.175582 -0.809703 0.882707
v -0.344415 -0.809703 0.831491
v -0.500014 -0.809703 0.748322
v -0.636397 -0.809703 0.636396
v -0.748323 -0.809703 0.500013
v -0.831492 -0.809703 0.344414
v -0.882707 -0.809703 0.175581
v -0.900000 -0.809703 -0.000001
v -0.882707 -0.809703 -0.175582
v -0.831491 -0.809703 -0.344416
v -0.748322 -0.809703 -0.500014
v -0.636395 -0.809703 -0.636397
v -0.500012 -0.809703 -0.748323
v -0.344414 -0.809703 -0.831492
v -0.175580 -0.809703 -0.882707
v 0.000000 -1.000000 -1.000000
v 0.000000 1.000000 -1.000000
v 0.195090 -1.000000 -0.980785
v 0.195090 1.000000 -0.980785
v 0.382683 -1.000000 -0.923880
v 0.382683 1.000000 -0.923880
v 0.555570 -1.000000 -0.831470
v 0.555570 1.000000 -0.831470
v 0.707107 -1.000000 -0.707107
v 0.707107 1.000000 -0.707107
v 0.831470 -1.000000 -0.555570
v 0.831470 1.000000 -0.555570
v 0.923880 -1.000000 -0.382683
v 0.923880 1.000000 -0.382683
v 0.980785 -1.000000 -0.195090
v 0.980785 1.000000 -0.195090
v 1.000000 -1.000000 -0.000000
v 1.000000 1.000000 -0.000000
v 0.980785 -1.000000 0.195090
v 0.980785 1.000000 0.195090
v 0.923880 -1.000000 0.382683
v 0.923880 1.000000 0.382683
v 0.831470 -1.000000 0.555570
v 0.831470 1.000000 0.555570
v 0.707107 -1.000000 0.707107
v 0.707107 1.000000 0.707107
v 0.555570 -1.000000 0.831470
v 0.555570 1.000000 0.831470
v 0.382683 -1.000000 0.923880
v 0.382683 1.000000 0.923880
v 0.195090 -1.000000 0.980785
v 0.195090 1.000000 0.980785
v -0.000000 -1.000000 1.000000
v -0.000000 1.000000 1.000000
v -0.195091 -1.000000 0.980785
v -0.195091 1.000000 0.980785
v -0.382684 -1.000000 0.923879
v -0.382684 1.000000 0.923879
v -0.555571 -1.000000 0.831469
v -0.555571 1.000000 0.831469
v -0.707107 -1.000000 0.707106
v -0.707107 1.000000 0.707106
v -0.831470 -1.000000 0.555570
v -0.831470 1.000000 0.555570
v -0.923880 -1.000000 0.382683
v -0.923880 1.000000 0.382683
v -0.980785 -1.000000 0.195089
v -0.980785 1.000000 0.195089
v -1.000000 -1.000000 -0.000001
v -1.000000 1.000000 -0.000001
v -0.980785 -1.000000 -0.195091
v -0.980785 1.000000 -0.195091
v -0.923879 -1.000000 -0.382684
v -0.923879 1.000000 -0.382684
v -0.831469 -1.000000 -0.555571
v -0.831469 1.000000 -0.555571
v -0.707106 -1.000000 -0.707108
v -0.707106 1.000000 -0.707108
v -0.555569 -1.000000 -0.831470
v -0.555569 1.000000 -0.831470
v -0.382682 -1.000000 -0.923880
v -0.382682 1.000000 -0.923880
v -0.195089 -1.000000 -0.980786
v -0.195089 1.000000 -0.980786
v 0.748323 1.000000 0.500013
v 0.000000 1.000000 -0.900000
v -0.175580 1.000000 -0.882707
v -0.344414 1.000000 -0.831492
v -0.831492 1.000000 0.344414
v -0.748323 1.000000 0.500013
v -0.882707 1.000000 0.175581
v -0.636397 1.000000 0.636396
v -0.175582 1.000000 0.882707
v -0.000000 1.000000 0.900000
v -0.344415 1.000000 0.831491
v 0.882707 1.000000 -0.175581
v 0.500013 1.000000 -0.748323
v 0.900000 1.000000 -0.000000
v 0.831492 1.000000 -0.344415
v 0.175581 1.000000 0.882707
v -0.636395 1.000000 -0.636397
v -0.500012 1.000000 -0.748323
v -0.748322 1.000000 -0.500014
v 0.882707 1.000000 0.175581
v 0.500013 1.000000 0.748323
v 0.636396 1.000000 0.636396
v 0.831492 1.000000 0.344415
v -0.900000 1.000000 -0.000001
v -0.500014 1.000000 0.748322
v -0.882707 1.000000 -0.175582
v 0.636396 1.000000 -0.636396
v 0.344415 1.000000 0.831492
v 0.748323 1.000000 -0.500013
v -0.831491 1.000000 -0.344416
v 0.344415 1.000000 -0.831492
v 0.175581 1.000000 -0.882707
vt 0.760162 0.621797
vt 0.737123 0.621797
vt 0.737123 0.309313
vt 0.760162 0.309313
vt 0.716389 0.621797
vt 0.716389 0.309313
vt 0.698756 0.621797
vt 0.698756 0.309313
vt 0.196663 0.999846
vt 0.179030 0.999846
vt 0.179030 0.687361
vt 0.196663 0.687361
vt 0.158296 0.999846
vt 0.158296 0.687361
vt 0.135258 0.999846
vt 0.135258 0.687361
vt 0.110800 0.999846
vt 0.110800 0.687361
vt 0.085863 0.999846
vt 0.085863 0.687361
vt 0.061406 0.999846
vt 0.061406 0.687361
vt 0.038367 0.999846
vt 0.038367 0.687361
vt 0.017633 0.999846
vt 0.017633 0.687361
vt 0.000000 0.999846
vt 0.000000 0.687361
vt 1.000000 0.967141
vt 0.979266 0.967141
vt 0.979266 0.654656
vt 1.000000 0.654656
vt 0.956227 0.967141
vt 0.956227 0.654656
vt 0.931770 0.967141
vt 0.931770 0.654656
vt 0.906833 0.967141
vt 0.906833 0.654656
vt 0.882375 0.967141
vt 0.882375 0.654656
vt 0.859337 0.967141
vt 0.859337 0.654656
vt 0.838603 0.967141
vt 0.838603 0.654656
vt 0.820970 0.967141
vt 0.820969 0.654656
vt 0.800235 0.967141
vt 0.800235 0.654656
vt 0.777197 0.967141
vt 0.777197 0.654656
vt 0.752739 0.967141
vt 0.752739 0.654656
vt 0.727802 0.967141
vt 0.727802 0.654656
vt 0.703345 0.967141
vt 0.703345 0.654656
vt 0.680306 0.967141
vt 0.680306 0.654656
vt 0.659572 0.967141
vt 0.659572 0.654656
vt 0.877787 0.621797
vt 0.857052 0.621797
vt 0.857052 0.309313
vt 0.877787 0.309313
vt 0.834014 0.621797
vt 0.834014 0.309313
vt 0.809556 0.621797
vt 0.809556 0.309313
vt 0.784619 0.621797
vt 0.784619 0.309313
vt 0.894349 0.164402
vt 0.883156 0.158738
vt 0.873084 0.150516
vt 0.864518 0.140051
vt 0.857787 0.127745
vt 0.853151 0.114072
vt 0.850788 0.099556
vt 0.850788 0.084756
vt 0.853151 0.070241
vt 0.857787 0.056568
vt 0.864517 0.044262
vt 0.873084 0.033797
vt 0.883156 0.025574
vt 0.894349 0.019911
vt 0.906231 0.017023
vt 0.918345 0.017023
vt 0.930227 0.019911
vt 0.941419 0.025574
vt 0.951491 0.033797
vt 0.960058 0.044262
vt 0.966788 0.056567
vt 0.971424 0.070241
vt 0.973788 0.084756
vt 0.973788 0.099556
vt 0.971424 0.114072
vt 0.966788 0.127745
vt 0.960058 0.140051
vt 0.951491 0.150516
vt 0.941419 0.158738
vt 0.930227 0.164402
vt 0.918345 0.167289
vt 0.906231 0.167289
vt 0.404430 0.654656
vt 0.404430 0.309313
vt 0.431605 0.309313
vt 0.431605 0.654656
vt 0.457204 0.309313
vt 0.457204 0.654656
vt 0.480242 0.309313
vt 0.480241 0.654656
vt 0.499834 0.309313
vt 0.499834 0.654656
vt 0.659572 0.654656
vt 0.659572 1.000000
vt 0.636534 1.000000
vt 0.636534 0.654656
vt 0.610936 1.000000
vt 0.610936 0.654656
vt 0.583761 1.000000
vt 0.583761 0.654656
vt 0.556053 1.000000
vt 0.556053 0.654656
vt 0.528878 1.000000
vt 0.528878 0.654656
vt 0.503280 1.000000
vt 0.503280 0.654656
vt 0.480242 1.000000
vt 0.480242 0.654656
vt 0.281319 1.000000
vt 0.281319 0.654656
vt 0.304357 0.654656
vt 0.304357 1.000000
vt 0.329955 0.654656
vt 0.329955 1.000000
vt 0.357130 0.654656
vt 0.357130 1.000000
vt 0.384838 0.654656
vt 0.384838 1.000000
vt 0.412013 0.654656
vt 0.412013 1.000000
vt 0.437612 0.654656
vt 0.437612 1.000000
vt 0.460649 0.654656
vt 0.460649 1.000000
vt 0.480242 0.654656
vt 0.480242 1.000000
vt 0.698756 0.309313
vt 0.698756 0.654656
vt 0.679164 0.654656
vt 0.679164 0.309313
vt 0.656126 0.654656
vt 0.656126 0.309313
vt 0.630528 0.654656
vt 0.630528 0.309313
vt 0.603353 0.654656
vt 0.603353 0.309313
vt 0.575645 0.654656
vt 0.575645 0.309313
vt 0.548470 0.654656
vt 0.548470 0.309313
vt 0.522872 0.654656
vt 0.522872 0.309313
vt 0.499834 0.654656
vt 0.499834 0.309313
vt 0.281319 0.654656
vt 0.281319 0.309313
vt 0.300911 0.309313
vt 0.300911 0.654656
vt 0.323949 0.309313
vt 0.323949 0.654656
vt 0.349548 0.309313
vt 0.349548 0.654656
vt 0.126806 0.687361
vt 0.099631 0.680758
vt 0.074032 0.667804
vt 0.050994 0.648998
vt 0.031402 0.625063
vt 0.016009 0.596918
vt 0.005406 0.565645
vt 0.000000 0.532446
vt 0.000000 0.498596
vt 0.005405 0.465397
vt 0.018931 0.470410
vt 0.014066 0.500289
vt 0.014066 0.530754
vt 0.018931 0.560633
vt 0.028474 0.588778
vt 0.042328 0.614109
vt 0.059961 0.635651
vt 0.080695 0.652576
vt 0.103734 0.664234
vt 0.128191 0.670177
vt 0.153128 0.670177
vt 0.177585 0.664234
vt 0.200624 0.652576
vt 0.221358 0.635650
vt 0.238991 0.614109
vt 0.252845 0.588778
vt 0.262388 0.560633
vt 0.275914 0.565645
vt 0.265310 0.596918
vt 0.249917 0.625063
vt 0.230325 0.648998
vt 0.207287 0.667804
vt 0.181688 0.680758
vt 0.154513 0.687361
vt 0.376723 0.309313
vt 0.376723 0.654656
vt 0.000000 0.188765
vt 0.000000 0.154916
vt 0.005405 0.121716
vt 0.016009 0.090443
vt 0.031402 0.062299
vt 0.050994 0.038363
vt 0.074032 0.019557
vt 0.099631 0.006604
vt 0.126806 0.000000
vt 0.154513 0.000000
vt 0.181688 0.006604
vt 0.207287 0.019557
vt 0.230325 0.038363
vt 0.249917 0.062298
vt 0.265310 0.090443
vt 0.275914 0.121716
vt 0.281319 0.154916
vt 0.281319 0.188765
vt 0.275914 0.221964
vt 0.265310 0.253237
vt 0.249917 0.281382
vt 0.230325 0.305318
vt 0.207287 0.324123
vt 0.181688 0.337077
vt 0.154513 0.343681
vt 0.126806 0.343681
vt 0.099631 0.337077
vt 0.074032 0.324123
vt 0.050994 0.305317
vt 0.031402 0.281382
vt 0.016009 0.253237
vt 0.005405 0.221964
vt 0.267253 0.530753
vt 0.267253 0.500289
vt 0.262388 0.470410
vt 0.252845 0.442264
vt 0.238991 0.416933
vt 0.221358 0.395392
vt 0.200624 0.378466
vt 0.177585 0.366808
vt 0.153128 0.360865
vt 0.128191 0.360865
vt 0.103733 0.366808
vt 0.080695 0.378466
vt 0.059961 0.395392
vt 0.042328 0.416934
vt 0.028474 0.442264
vt 0.016009 0.434124
vt 0.031402 0.405979
vt 0.050994 0.382044
vt 0.074032 0.363238
vt 0.099631 0.350284
vt 0.126806 0.343681
vt 0.154513 0.343681
vt 0.181688 0.350284
vt 0.207287 0.363238
vt 0.230325 0.382044
vt 0.249917 0.405979
vt 0.265310 0.434124
vt 0.275914 0.465397
vt 0.281319 0.498596
vt 0.281319 0.532446
vn -0.0980 0.0000 0.9952
vn -0.2903 0.0000 0.9569
vn -0.4714 0.0000 0.8819
vn -0.6344 0.0000 0.7730
vn -0.7730 0.0000 0.6344
vn -0.8819 0.0000 0.4714
vn -0.9569 0.0000 0.2903
vn -0.9952 0.0000 0.0980
vn -0.9952 0.0000 -0.0980
vn -0.9569 0.0000 -0.2903
vn -0.8819 0.0000 -0.4714
vn -0.7730 0.0000 -0.6344
vn -0.6344 0.0000 -0.7730
vn -0.4714 0.0000 -0.8819
vn -0.2903 0.0000 -0.9569
vn -0.0980 0.0000 -0.9952
vn 0.0980 0.0000 -0.9952
vn 0.2903 0.0000 -0.9569
vn 0.4714 0.0000 -0.8819
vn 0.6344 0.0000 -0.7730
vn 0.7730 0.0000 -0.6344
vn 0.8819 0.0000 -0.4714
vn 0.9569 0.0000 -0.2903
vn 0.9952 0.0000 -0.0980
vn 0.9952 0.0000 0.0980
vn 0.9569 0.0000 0.2903
vn 0.8819 0.0000 0.4714
vn 0.7730 0.0000 0.6344
vn 0.6344 0.0000 0.7730
vn 0.4714 0.0000 0.8819
vn 0.2903 0.0000 0.9569
vn 0.0980 0.0000 0.9952
vn 0.0000 1.0000 -0.0000
vn 0.0000 -1.0000 -0.0000
usemtl None
s off
f 1/1/1 2/2/1 128/3/1 98/4/1
f 2/2/2 3/5/2 127/6/2 128/3/2
f 3/5/3 4/7/3 109/8/3 127/6/3
f 4/9/4 5/10/4 123/11/4 109/12/4
f 5/10/5 6/13/5 125/14/5 123/11/5
f 6/13/6 7/15/6 111/16/6 125/14/6
f 7/15/7 8/17/7 108/18/7 111/16/7
f 8/17/8 9/19/8 110/20/8 108/18/8
f 9/19/9 10/21/9 116/22/9 110/20/9
f 10/21/10 11/23/10 119/24/10 116/22/10
f 11/23/11 12/25/11 97/26/11 119/24/11
f 12/25/12 13/27/12 118/28/12 97/26/12
f 13/29/13 14/30/13 117/31/13 118/32/13
f 14/30/14 15/33/14 124/34/14 117/31/14
f 15/33/15 16/35/15 112/36/15 124/34/15
f 16/35/16 17/37/16 106/38/16 112/36/16
f 17/37/17 18/39/17 105/40/17 106/38/17
f 18/39/18 19/41/18 107/42/18 105/40/18
f 19/41/19 20/43/19 121/44/19 107/42/19
f 20/43/20 21/45/20 104/46/20 121/44/20
f 21/45/21 22/47/21 102/48/21 104/46/21
f 22/47/22 23/49/22 101/50/22 102/48/22
f 23/49/23 24/51/23 103/52/23 101/50/23
f 24/51/24 25/53/24 120/54/24 103/52/24
f 25/53/25 26/55/25 122/56/25 120/54/25
f 26/55/26 27/57/26 126/58/26 122/56/26
f 27/57/27 28/59/27 115/60/27 126/58/27
f 28/61/28 29/62/28 113/63/28 115/64/28
f 29/62/29 30/65/29 114/66/29 113/63/29
f 30/65/30 31/67/30 100/68/30 114/66/30
f 31/67/31 32/69/31 99/70/31 100/68/31
f 32/69/32 1/1/32 98/4/32 99/70/32
f 1/71/33 32/72/33 31/73/33 30/74/33 29/75/33 28/76/33 27/77/33 26/78/33 25/79/33 24/80/33 23/81/33 22/82/33 21/83/33 20/84/33 19/85/33 18/86/33 17/87/33 16/88/33 15/89/33 14/90/33 13/91/33 12/92/33 11/93/33 10/94/33 9/95/33 8/96/33 7/97/33 6/98/33 5/99/33 4/100/33 3/101/33 2/102/33
f 33/103/17 34/104/17 36/105/17 35/106/17
f 35/106/18 36/105/18 38/107/18 37/108/18
f 37/108/19 38/107/19 40/109/19 39/110/19
f 39/110/20 40/109/20 42/111/20 41/112/20
f 41/113/21 42/114/21 44/115/21 43/116/21
f 43/116/22 44/115/22 46/117/22 45/118/22
f 45/118/23 46/117/23 48/119/23 47/120/23
f 47/120/24 48/119/24 50/121/24 49/122/24
f 49/122/25 50/121/25 52/123/25 51/124/25
f 51/124/26 52/123/26 54/125/26 53/126/26
f 53/126/27 54/125/27 56/127/27 55/128/27
f 55/129/28 56/130/28 58/131/28 57/132/28
f 57/132/29 58/131/29 60/133/29 59/134/29
f 59/134/30 60/133/30 62/135/30 61/136/30
f 61/136/31 62/135/31 64/137/31 63/138/31
f 63/138/32 64/137/32 66/139/32 65/140/32
f 65/140/1 66/139/1 68/141/1 67/142/1
f 67/142/2 68/141/2 70/143/2 69/144/2
f 69/144/3 70/143/3 72/145/3 71/146/3
f 71/147/4 72/148/4 74/149/4 73/150/4
f 73/150/5 74/149/5 76/151/5 75/152/5
f 75/152/6 76/151/6 78/153/6 77/154/6
f 77/154/7 78/153/7 80/155/7 79/156/7
f 79/156/8 80/155/8 82/157/8 81/158/8
f 81/158/9 82/157/9 84/159/9 83/160/9
f 83/160/10 84/159/10 86/161/10 85/162/10
f 85/162/11 86/161/11 88/163/11 87/164/11
f 87/165/12 88/166/12 90/167/12 89/168/12
f 89/168/13 90/167/13 92/169/13 91/170/13
f 91/170/14 92/169/14 94/171/14 93/172/14
f 36/173/33 34/174/33 96/175/33 94/176/33 92/177/33 90/178/33 88/179/33 86/180/33 84/181/33 82/182/33 120/183/33 122/184/33 126/185/33 115/186/33 113/187/33 114/188/33 100/189/33 99/190/33 98/191/33 128/192/33 127/193/33 109/194/33 123/195/33 125/196/33 111/197/33 108/198/33 110/199/33 50/200/33 48/201/33 46/202/33 44/203/33 42/204/33 40/205/33 38/206/33
f 93/172/15 94/171/15 96/207/15 95/208/15
f 95/208/16 96/207/16 34/104/16 33/103/16
f 33/209/34 35/210/34 37/211/34 39/212/34 41/213/34 43/214/34 45/215/34 47/216/34 49/217/34 51/218/34 53/219/34 55/220/34 57/221/34 59/222/34 61/223/34 63/224/34 65/225/34 67/226/34 69/227/34 71/228/34 73/229/34 75/230/34 77/231/34 79/232/34 81/233/34 83/234/34 85/235/34 87/236/34 89/237/34 91/238/34 93/239/34 95/240/34
f 50/200/33 110/199/33 116/241/33 119/242/33 97/243/33 118/244/33 117/245/33 124/246/33 112/247/33 106/248/33 105/249/33 107/250/33 121/251/33 104/252/33 102/253/33 101/254/33 103/255/33 120/183/33 82/182/33 80/256/33 78/257/33 76/258/33 74/259/33 72/260/33 70/261/33 68/262/33 66/263/33 64/264/33 62/265/33 60/266/33 58/267/33 56/268/33 54/269/33 52/270/33
