# Blender v2.79 (sub 0) OBJ File: ''
# www.blender.org
mtllib Pipe.mtl
o Cylinder
v 0.000000 -1.000000 -1.000000
v 0.000000 1.000000 -1.000000
v 0.195090 -1.000000 -0.980785
v 0.195090 1.000000 -0.980785
v 0.382683 -1.000000 -0.923880
v 0.382683 1.000000 -0.923880
v 0.555570 -1.000000 -0.831470
v 0.555570 1.000000 -0.831470
v 0.707107 -1.000000 -0.707107
v 0.707107 1.000000 -0.707107
v 0.831470 -1.000000 -0.555570
v 0.831470 1.000000 -0.555570
v 0.923880 -1.000000 -0.382683
v 0.923880 1.000000 -0.382683
v 0.980785 -1.000000 -0.195090
v 0.980785 1.000000 -0.195090
v 1.000000 -1.000000 -0.000000
v 1.000000 1.000000 -0.000000
v 0.980785 -1.000000 0.195090
v 0.980785 1.000000 0.195090
v 0.923880 -1.000000 0.382683
v 0.923880 1.000000 0.382683
v 0.831470 -1.000000 0.555570
v 0.831470 1.000000 0.555570
v 0.707107 -1.000000 0.707107
v 0.707107 1.000000 0.707107
v 0.555570 -1.000000 0.831470
v 0.555570 1.000000 0.831470
v 0.382683 -1.000000 0.923880
v 0.382683 1.000000 0.923880
v 0.195090 -1.000000 0.980785
v 0.195090 1.000000 0.980785
v -0.000000 -1.000000 1.000000
v -0.000000 1.000000 1.000000
v -0.195091 -1.000000 0.980785
v -0.195091 1.000000 0.980785
v -0.382684 -1.000000 0.923879
v -0.382684 1.000000 0.923879
v -0.555571 -1.000000 0.831469
v -0.555571 1.000000 0.831469
v -0.707107 -1.000000 0.707106
v -0.707107 1.000000 0.707106
v -0.831470 -1.000000 0.555570
v -0.831470 1.000000 0.555570
v -0.923880 -1.000000 0.382683
v -0.923880 1.000000 0.382683
v -0.980785 -1.000000 0.195089
v -0.980785 1.000000 0.195089
v -1.000000 -1.000000 -0.000001
v -1.000000 1.000000 -0.000001
v -0.980785 -1.000000 -0.195091
v -0.980785 1.000000 -0.195091
v -0.923879 -1.000000 -0.382684
v -0.923879 1.000000 -0.382684
v -0.831469 -1.000000 -0.555571
v -0.831469 1.000000 -0.555571
v -0.707106 -1.000000 -0.707108
v -0.707106 1.000000 -0.707108
v -0.555569 -1.000000 -0.831470
v -0.555569 1.000000 -0.831470
v -0.382682 -1.000000 -0.923880
v -0.382682 1.000000 -0.923880
v -0.195089 -1.000000 -0.980786
v -0.195089 1.000000 -0.980786
v 0.665176 1.000000 0.444456
v 0.665176 -1.000000 0.444456
v 0.000000 1.000000 -0.800000
v 0.000000 -1.000000 -0.800000
v -0.156071 1.000000 -0.784628
v -0.156071 -1.000000 -0.784628
v -0.306146 1.000000 -0.739104
v -0.306146 -1.000000 -0.739104
v -0.739104 1.000000 0.306146
v -0.739104 -1.000000 0.306146
v -0.665176 1.000000 0.444456
v -0.665176 -1.000000 0.444456
v -0.784628 1.000000 0.156072
v -0.784628 -1.000000 0.156072
v -0.565686 1.000000 0.565685
v -0.565686 -1.000000 0.565685
v -0.156073 1.000000 0.784628
v -0.156073 -1.000000 0.784628
v -0.000000 1.000000 0.800000
v -0.000000 -1.000000 0.800000
v -0.306147 1.000000 0.739103
v -0.306147 -1.000000 0.739103
v 0.784628 1.000000 -0.156072
v 0.784628 -1.000000 -0.156072
v 0.444456 1.000000 -0.665176
v 0.444456 -1.000000 -0.665176
v 0.800000 1.000000 -0.000000
v 0.800000 -1.000000 -0.000000
v 0.739104 1.000000 -0.306147
v 0.739104 -1.000000 -0.306147
v 0.156072 1.000000 0.784628
v 0.156072 -1.000000 0.784628
v -0.565685 1.000000 -0.565686
v -0.565685 -1.000000 -0.565686
v -0.444455 1.000000 -0.665176
v -0.444455 -1.000000 -0.665176
v -0.665175 1.000000 -0.444457
v -0.665175 -1.000000 -0.444457
v 0.784628 1.000000 0.156072
v 0.784628 -1.000000 0.156072
v 0.444456 1.000000 0.665176
v 0.444456 -1.000000 0.665176
v 0.565685 1.000000 0.565685
v 0.565685 -1.000000 0.565685
v 0.739104 1.000000 0.306147
v 0.739104 -1.000000 0.306147
v -0.800000 1.000000 -0.000001
v -0.800000 -1.000000 -0.000001
v -0.444457 1.000000 0.665175
v -0.444457 -1.000000 0.665175
v -0.784628 1.000000 -0.156073
v -0.784628 -1.000000 -0.156073
v 0.565685 1.000000 -0.565685
v 0.565685 -1.000000 -0.565685
v 0.306147 1.000000 0.739104
v 0.306147 -1.000000 0.739104
v 0.665176 1.000000 -0.444456
v 0.665176 -1.000000 -0.444456
v -0.739103 1.000000 -0.306148
v -0.739103 -1.000000 -0.306148
v 0.306147 1.000000 -0.739104
v 0.306147 -1.000000 -0.739104
v 0.156072 1.000000 -0.784628
v 0.156072 -1.000000 -0.784628
v 0.000000 0.841052 -1.000000
v 0.195090 0.841052 -0.980785
v 0.382683 0.841052 -0.923880
v 0.555570 0.841052 -0.831470
v 0.707107 0.841052 -0.707107
v 0.831470 0.841052 -0.555570
v 0.923880 0.841052 -0.382683
v 0.980785 0.841052 -0.195090
v 1.000000 0.841052 -0.000000
v 0.980785 0.841052 0.195090
v 0.923880 0.841052 0.382683
v 0.831470 0.841052 0.555570
v 0.707107 0.841052 0.707107
v 0.555570 0.841052 0.831470
v 0.382683 0.841052 0.923880
v 0.195090 0.841052 0.980785
v -0.000000 0.841052 1.000000
v -0.195091 0.841052 0.980785
v -0.382684 0.841052 0.923879
v -0.555571 0.841052 0.831469
v -0.707107 0.841052 0.707106
v -0.831470 0.841052 0.555570
v -0.923880 0.841052 0.382683
v -0.980785 0.841052 0.195089
v -1.000000 0.841052 -0.000001
v -0.980785 0.841052 -0.195091
v -0.923879 0.841052 -0.382684
v -0.831469 0.841052 -0.555571
v -0.707106 0.841052 -0.707108
v -0.555569 0.841052 -0.831470
v -0.382682 0.841052 -0.923880
v -0.195089 0.841052 -0.980786
vt 0.623727 0.026491
vt 0.623727 0.000000
vt 0.654263 0.000000
vt 0.654263 0.026491
vt 0.686680 0.000000
vt 0.686680 0.026491
vt 0.719732 0.000000
vt 0.719732 0.026491
vt 0.752148 0.000000
vt 0.752148 0.026491
vt 0.782684 0.000000
vt 0.782684 0.026491
vt 0.810166 0.000000
vt 0.810166 0.026491
vt 0.563755 0.640175
vt 0.563755 0.666667
vt 0.533219 0.666667
vt 0.533219 0.640175
vt 0.500802 0.666667
vt 0.500802 0.640175
vt 0.467750 0.666667
vt 0.467750 0.640175
vt 0.435334 0.666667
vt 0.435334 0.640175
vt 0.404798 0.666667
vt 0.404798 0.640175
vt 0.377316 0.666667
vt 0.377316 0.640175
vt 0.353945 0.666667
vt 0.353945 0.640175
vt 0.335582 0.666667
vt 0.335582 0.640175
vt 0.335582 0.026491
vt 0.335582 0.000000
vt 0.358953 0.000000
vt 0.358953 0.026491
vt 0.386435 0.000000
vt 0.386435 0.026491
vt 0.416971 0.000000
vt 0.416971 0.026491
vt 0.449388 0.000000
vt 0.449388 0.026491
vt 0.482440 0.000000
vt 0.482440 0.026491
vt 0.514857 0.000000
vt 0.514857 0.026491
vt 0.545393 0.000000
vt 0.545393 0.026491
vt 0.572874 0.000000
vt 0.572874 0.026491
vt 0.596245 0.000000
vt 0.596245 0.026491
vt 0.228173 0.970298
vt 0.228173 0.996790
vt 0.209811 0.996790
vt 0.209811 0.970298
vt 0.186439 0.996790
vt 0.186439 0.970298
vt 0.158958 0.996790
vt 0.158958 0.970298
vt 0.128422 0.996790
vt 0.128422 0.970298
vt 0.096005 0.996790
vt 0.096005 0.970298
vt 0.062953 0.996790
vt 0.062953 0.970298
vt 0.030536 0.996790
vt 0.030536 0.970298
vt 0.151265 0.663456
vt 0.118848 0.657082
vt 0.088312 0.644579
vt 0.060831 0.626427
vt 0.037459 0.603325
vt 0.019097 0.576159
vt 0.006448 0.545973
vt 0.000000 0.513929
vt 0.000000 0.481256
vt 0.006448 0.449212
vt 0.038717 0.458888
vt 0.033558 0.484523
vt 0.033558 0.510661
vt 0.038717 0.536297
vt 0.048835 0.560445
vt 0.063526 0.582178
vt 0.082223 0.600660
vt 0.104208 0.615182
vt 0.128637 0.625184
vt 0.154570 0.630284
vt 0.181012 0.630284
vt 0.206945 0.625184
vt 0.231374 0.615182
vt 0.253359 0.600660
vt 0.272056 0.582178
vt 0.286746 0.560445
vt 0.296865 0.536297
vt 0.329134 0.545973
vt 0.316485 0.576158
vt 0.298123 0.603324
vt 0.274751 0.626427
vt 0.247270 0.644579
vt 0.216734 0.657082
vt 0.184317 0.663456
vt 0.000000 0.996790
vt 0.000000 0.970298
vt 0.596245 0.026491
vt 0.596245 0.000000
vt 0.000000 0.182200
vt 0.000000 0.149528
vt 0.006448 0.117483
vt 0.019097 0.087298
vt 0.037459 0.060132
vt 0.060830 0.037029
vt 0.088312 0.018877
vt 0.118848 0.006374
vt 0.151265 0.000000
vt 0.154570 0.033173
vt 0.128637 0.038272
vt 0.104208 0.048275
vt 0.082223 0.062796
vt 0.063526 0.081278
vt 0.048835 0.103011
vt 0.038717 0.127160
vt 0.033558 0.152795
vt 0.033558 0.178933
vt 0.038717 0.204569
vt 0.048835 0.228717
vt 0.063525 0.250450
vt 0.082222 0.268932
vt 0.104208 0.283453
vt 0.128637 0.293456
vt 0.154570 0.298555
vt 0.181012 0.298555
vt 0.184317 0.331728
vt 0.151265 0.331728
vt 0.118848 0.325354
vt 0.088312 0.312851
vt 0.060830 0.294699
vt 0.037459 0.271596
vt 0.019096 0.244430
vt 0.006448 0.214245
vt 0.354279 0.666667
vt 0.354279 1.000000
vt 0.335582 1.000000
vt 0.335582 0.666667
vt 0.426626 0.666667
vt 0.426626 1.000000
vt 0.400693 1.000000
vt 0.400693 0.666667
vt 0.376264 1.000000
vt 0.376264 0.666667
vt 0.908955 0.000000
vt 0.908955 0.333333
vt 0.882514 0.333333
vt 0.882514 0.000000
vt 0.605927 0.666667
vt 0.605927 0.333333
vt 0.624624 0.333333
vt 0.624624 0.666667
vt 0.591237 0.666667
vt 0.591237 0.333333
vt 0.646609 0.666667
vt 0.646609 0.333333
vt 0.671038 0.333333
vt 0.671038 0.666667
vt 0.773775 0.666667
vt 0.773775 0.333333
vt 0.795761 0.333333
vt 0.795761 0.666667
vt 0.853577 0.333333
vt 0.853577 0.666667
vt 0.829148 0.666667
vt 0.829148 0.333333
vt 0.959318 0.000000
vt 0.959318 0.333333
vt 0.934889 0.333333
vt 0.934889 0.000000
vt 0.525416 0.666667
vt 0.525416 1.000000
vt 0.503430 1.000000
vt 0.503430 0.666667
vt 0.814458 0.333333
vt 0.814458 0.666667
vt 0.696972 0.333333
vt 0.696972 0.666667
vt 0.905952 0.333333
vt 0.905952 0.666667
vt 0.879510 0.666667
vt 0.879510 0.333333
vt 0.302024 0.510661
vt 0.302024 0.484523
vt 0.296865 0.458888
vt 0.286746 0.434739
vt 0.272056 0.413007
vt 0.253359 0.394524
vt 0.231374 0.380003
vt 0.206945 0.370000
vt 0.181012 0.364901
vt 0.154570 0.364901
vt 0.128637 0.370000
vt 0.104208 0.380003
vt 0.082222 0.394524
vt 0.063525 0.413007
vt 0.048835 0.434739
vt 0.019096 0.419026
vt 0.037459 0.391860
vt 0.060830 0.368757
vt 0.088312 0.350605
vt 0.118848 0.338102
vt 0.151265 0.331728
vt 0.184317 0.331728
vt 0.216734 0.338102
vt 0.247270 0.350605
vt 0.274751 0.368757
vt 0.298123 0.391860
vt 0.316485 0.419026
vt 0.329134 0.449212
vt 0.335582 0.481256
vt 0.335582 0.513928
vt 0.723413 0.333333
vt 0.723413 0.666667
vt 0.453068 0.666667
vt 0.453068 1.000000
vt 1.000000 0.000000
vt 1.000000 0.333333
vt 0.981303 0.333333
vt 0.981303 0.000000
vt 0.479002 0.666667
vt 0.479002 1.000000
vt 0.931885 0.333333
vt 0.931885 0.666667
vt 0.832151 0.000000
vt 0.832152 0.333333
vt 0.810166 0.333333
vt 0.810166 0.000000
vt 0.749347 0.666667
vt 0.749347 0.333333
vt 0.856580 0.333333
vt 0.856580 0.000000
vt 0.829148 0.333333
vt 0.829148 0.666667
vt 0.206945 0.293456
vt 0.231374 0.283454
vt 0.253359 0.268932
vt 0.272056 0.250450
vt 0.286746 0.228717
vt 0.296865 0.204569
vt 0.302024 0.178933
vt 0.302024 0.152795
vt 0.296865 0.127159
vt 0.286746 0.103011
vt 0.272056 0.081278
vt 0.253359 0.062796
vt 0.231374 0.048275
vt 0.206945 0.038272
vt 0.181012 0.033173
vt 0.184317 0.000000
vt 0.216734 0.006374
vt 0.247270 0.018877
vt 0.274751 0.037029
vt 0.298123 0.060132
vt 0.316485 0.087298
vt 0.329134 0.117483
vt 0.335582 0.149528
vt 0.335582 0.182200
vt 0.329134 0.214245
vt 0.316485 0.244430
vt 0.298123 0.271596
vt 0.274751 0.294699
vt 0.247270 0.312851
vt 0.216734 0.325354
vt 0.956314 0.333333
vt 0.956314 0.666667
vt 0.596245 0.333333
vt 0.623727 0.333333
vt 0.030536 0.663456
vt 0.000000 0.663456
vt 0.062953 0.663456
vt 0.096005 0.663456
vt 0.128422 0.663456
vt 0.158958 0.663456
vt 0.186439 0.663456
vt 0.209811 0.663456
vt 0.228173 0.663456
vt 0.572874 0.333333
vt 0.596245 0.333333
vt 0.545392 0.333333
vt 0.514856 0.333333
vt 0.482440 0.333333
vt 0.449388 0.333333
vt 0.416971 0.333333
vt 0.386435 0.333333
vt 0.358953 0.333333
vt 0.335582 0.333333
vt 0.353945 0.333333
vt 0.377316 0.333333
vt 0.404797 0.333333
vt 0.435333 0.333333
vt 0.467750 0.333333
vt 0.500802 0.333333
vt 0.533219 0.333333
vt 0.563755 0.333333
vt 0.591237 0.333333
vt 0.591237 0.640175
vt 0.752149 0.333333
vt 0.782685 0.333333
vt 0.719732 0.333333
vt 0.686680 0.333333
vt 0.654263 0.333333
vn 0.0980 0.0000 -0.9952
vn 0.2903 0.0000 -0.9569
vn 0.4714 0.0000 -0.8819
vn 0.6344 0.0000 -0.7730
vn 0.7730 0.0000 -0.6344
vn 0.8819 0.0000 -0.4714
vn 0.9569 0.0000 -0.2903
vn 0.9952 0.0000 -0.0980
vn 0.9952 0.0000 0.0980
vn 0.9569 0.0000 0.2903
vn 0.8819 0.0000 0.4714
vn 0.7730 0.0000 0.6344
vn 0.6344 0.0000 0.7730
vn 0.4714 0.0000 0.8819
vn 0.2903 0.0000 0.9569
vn 0.0980 0.0000 0.9952
vn -0.0980 0.0000 0.9952
vn -0.2903 0.0000 0.9569
vn -0.4714 0.0000 0.8819
vn -0.6344 0.0000 0.7730
vn -0.7730 0.0000 0.6344
vn -0.8819 0.0000 0.4714
vn -0.9569 0.0000 0.2903
vn -0.9952 0.0000 0.0980
vn -0.9952 0.0000 -0.0980
vn -0.9569 0.0000 -0.2903
vn -0.8819 0.0000 -0.4714
vn -0.7730 0.0000 -0.6344
vn -0.6344 0.0000 -0.7730
vn -0.4714 0.0000 -0.8819
vn 0.0000 1.0000 0.0000
vn -0.2903 0.0000 -0.9569
vn -0.0980 0.0000 -0.9952
vn 0.0000 -1.0000 -0.0000
usemtl None
s off
f 129/1/1 2/2/1 4/3/1 130/4/1
f 130/4/2 4/3/2 6/5/2 131/6/2
f 131/6/3 6/5/3 8/7/3 132/8/3
f 132/8/4 8/7/4 10/9/4 133/10/4
f 133/10/5 10/9/5 12/11/5 134/12/5
f 134/12/6 12/11/6 14/13/6 135/14/6
f 135/15/7 14/16/7 16/17/7 136/18/7
f 136/18/8 16/17/8 18/19/8 137/20/8
f 137/20/9 18/19/9 20/21/9 138/22/9
f 138/22/10 20/21/10 22/23/10 139/24/10
f 139/24/11 22/23/11 24/25/11 140/26/11
f 140/26/12 24/25/12 26/27/12 141/28/12
f 141/28/13 26/27/13 28/29/13 142/30/13
f 142/30/14 28/29/14 30/31/14 143/32/14
f 143/33/15 30/34/15 32/35/15 144/36/15
f 144/36/16 32/35/16 34/37/16 145/38/16
f 145/38/17 34/37/17 36/39/17 146/40/17
f 146/40/18 36/39/18 38/41/18 147/42/18
f 147/42/19 38/41/19 40/43/19 148/44/19
f 148/44/20 40/43/20 42/45/20 149/46/20
f 149/46/21 42/45/21 44/47/21 150/48/21
f 150/48/22 44/47/22 46/49/22 151/50/22
f 151/50/23 46/49/23 48/51/23 152/52/23
f 152/53/24 48/54/24 50/55/24 153/56/24
f 153/56/25 50/55/25 52/57/25 154/58/25
f 154/58/26 52/57/26 54/59/26 155/60/26
f 155/60/27 54/59/27 56/61/27 156/62/27
f 156/62/28 56/61/28 58/63/28 157/64/28
f 157/64/29 58/63/29 60/65/29 158/66/29
f 158/66/30 60/65/30 62/67/30 159/68/30
f 4/69/31 2/70/31 64/71/31 62/72/31 60/73/31 58/74/31 56/75/31 54/76/31 52/77/31 50/78/31 111/79/31 115/80/31 123/81/31 101/82/31 97/83/31 99/84/31 71/85/31 69/86/31 67/87/31 127/88/31 125/89/31 89/90/31 117/91/31 121/92/31 93/93/31 87/94/31 91/95/31 18/96/31 16/97/31 14/98/31 12/99/31 10/100/31 8/101/31 6/102/31
f 159/68/32 62/67/32 64/103/32 160/104/32
f 160/105/33 64/106/33 2/2/33 129/1/33
f 1/107/34 3/108/34 5/109/34 7/110/34 9/111/34 11/112/34 13/113/34 15/114/34 17/115/34 92/116/34 88/117/34 94/118/34 122/119/34 118/120/34 90/121/34 126/122/34 128/123/34 68/124/34 70/125/34 72/126/34 100/127/34 98/128/34 102/129/34 124/130/34 116/131/34 112/132/34 49/133/34 51/134/34 53/135/34 55/136/34 57/137/34 59/138/34 61/139/34 63/140/34
f 104/141/25 103/142/25 91/143/25 92/144/25
f 108/145/28 107/146/28 65/147/28 66/148/28
f 66/148/27 65/147/27 109/149/27 110/150/27
f 116/151/9 115/152/9 111/153/9 112/154/9
f 88/155/23 87/156/23 93/157/23 94/158/23
f 92/159/24 91/160/24 87/156/24 88/155/24
f 122/161/21 121/162/21 117/163/21 118/164/21
f 68/165/16 67/166/16 69/167/16 70/168/16
f 82/169/1 81/170/1 83/171/1 84/172/1
f 102/173/11 101/174/11 123/175/11 124/176/11
f 84/177/33 83/178/33 95/179/33 96/180/33
f 70/168/15 69/167/15 71/181/15 72/182/15
f 118/164/20 117/163/20 89/183/20 90/184/20
f 114/185/3 113/186/3 85/187/3 86/188/3
f 18/96/31 91/95/31 103/189/31 109/190/31 65/191/31 107/192/31 105/193/31 119/194/31 95/195/31 83/196/31 81/197/31 85/198/31 113/199/31 79/200/31 75/201/31 73/202/31 77/203/31 111/79/31 50/78/31 48/204/31 46/205/31 44/206/31 42/207/31 40/208/31 38/209/31 36/210/31 34/211/31 32/212/31 30/213/31 28/214/31 26/215/31 24/216/31 22/217/31 20/218/31
f 90/184/19 89/183/19 125/219/19 126/220/19
f 106/221/29 105/222/29 107/146/29 108/145/29
f 100/223/13 99/224/13 97/225/13 98/226/13
f 124/176/10 123/175/10 115/152/10 116/151/10
f 120/227/30 119/228/30 105/222/30 106/221/30
f 80/229/4 79/230/4 113/186/4 114/185/4
f 74/231/6 73/232/6 75/233/6 76/234/6
f 128/235/17 127/236/17 67/166/17 68/165/17
f 94/158/22 93/157/22 121/162/22 122/161/22
f 112/154/8 111/153/8 77/237/8 78/238/8
f 110/150/26 109/149/26 103/142/26 104/141/26
f 86/188/2 85/187/2 81/170/2 82/169/2
f 72/182/14 71/181/14 99/239/14 100/240/14
f 126/220/18 125/219/18 127/236/18 128/235/18
f 96/180/32 95/179/32 119/228/32 120/227/32
f 78/238/7 77/237/7 73/232/7 74/231/7
f 98/226/12 97/225/12 101/174/12 102/173/12
f 49/133/34 112/132/34 78/241/34 74/242/34 76/243/34 80/244/34 114/245/34 86/246/34 82/247/34 84/248/34 96/249/34 120/250/34 106/251/34 108/252/34 66/253/34 110/254/34 104/255/34 92/116/34 17/115/34 19/256/34 21/257/34 23/258/34 25/259/34 27/260/34 29/261/34 31/262/34 33/263/34 35/264/34 37/265/34 39/266/34 41/267/34 43/268/34 45/269/34 47/270/34
f 76/271/5 75/272/5 79/230/5 80/229/5
f 63/273/33 160/105/33 129/1/33 1/274/33
f 61/275/32 159/68/32 160/104/32 63/276/32
f 59/277/30 158/66/30 159/68/30 61/275/30
f 57/278/29 157/64/29 158/66/29 59/277/29
f 55/279/28 156/62/28 157/64/28 57/278/28
f 53/280/27 155/60/27 156/62/27 55/279/27
f 51/281/26 154/58/26 155/60/26 53/280/26
f 49/282/25 153/56/25 154/58/25 51/281/25
f 47/283/24 152/53/24 153/56/24 49/282/24
f 45/284/23 151/50/23 152/52/23 47/285/23
f 43/286/22 150/48/22 151/50/22 45/284/22
f 41/287/21 149/46/21 150/48/21 43/286/21
f 39/288/20 148/44/20 149/46/20 41/287/20
f 37/289/19 147/42/19 148/44/19 39/288/19
f 35/290/18 146/40/18 147/42/18 37/289/18
f 33/291/17 145/38/17 146/40/17 35/290/17
f 31/292/16 144/36/16 145/38/16 33/291/16
f 29/293/15 143/33/15 144/36/15 31/292/15
f 27/294/14 142/30/14 143/32/14 29/293/14
f 25/295/13 141/28/13 142/30/13 27/294/13
f 23/296/12 140/26/12 141/28/12 25/295/12
f 21/297/11 139/24/11 140/26/11 23/296/11
f 19/298/10 138/22/10 139/24/10 21/297/10
f 17/299/9 137/20/9 138/22/9 19/298/9
f 15/300/8 136/18/8 137/20/8 17/299/8
f 13/301/7 135/15/7 136/18/7 15/300/7
f 11/302/6 134/303/6 135/15/6 13/301/6
f 9/304/5 133/10/5 134/12/5 11/305/5
f 7/306/4 132/8/4 133/10/4 9/304/4
f 5/307/3 131/6/3 132/8/3 7/306/3
f 3/308/2 130/4/2 131/6/2 5/307/2
f 1/274/1 129/1/1 130/4/1 3/308/1
